HIERARCHY
ROOT Hips
{
  OFFSET -25.4992 47.4658 0.522821
  CHANNELS 6 Xposition Yposition Zposition Zrotation Xrotation Yrotation
  JOINT Bip01_Pelvis
  {
    OFFSET 0 0 0
    CHANNELS 6 Xposition Yposition Zposition Zrotation Xrotation Yrotation
    JOINT Bip01_Spine
    {
      OFFSET 7.92815 1.03427 -0.957866
      CHANNELS 6 Xposition Yposition Zposition Zrotation Xrotation Yrotation
      JOINT Bip01_Spine1
      {
        OFFSET 14.2482 -0.00839019 0.000894789
        CHANNELS 6 Xposition Yposition Zposition Zrotation Xrotation Yrotation
        JOINT Bip01_Neck
        {
          OFFSET 16.1384 -3.98645 0.000135839
          CHANNELS 6 Xposition Yposition Zposition Zrotation Xrotation Yrotation
          JOINT Bip01_Neck1
          {
            OFFSET 9.69266 -0.00491233 0
            CHANNELS 6 Xposition Yposition Zposition Zrotation Xrotation Yrotation
            JOINT Bip01_Head
            {
              OFFSET 6.2355 0 0
              CHANNELS 6 Xposition Yposition Zposition Zrotation Xrotation Yrotation
              JOINT BN_Mouth_01
              {
                OFFSET 4.58056 2.14338 0
                CHANNELS 6 Xposition Yposition Zposition Zrotation Xrotation Yrotation
                End Site
                {
                  OFFSET 0 0 0
                }
              }
            }
          }
          JOINT Bip01_L_Clavicle
          {
            OFFSET -0.933029 -3.98291 -6.88005
            CHANNELS 6 Xposition Yposition Zposition Zrotation Xrotation Yrotation
            JOINT Bip01_L_UpperArm
            {
              OFFSET 15.6802 0 0
              CHANNELS 6 Xposition Yposition Zposition Zrotation Xrotation Yrotation
              JOINT Bip01_L_Forearm
              {
                OFFSET 15.3149 0 0
                CHANNELS 6 Xposition Yposition Zposition Zrotation Xrotation Yrotation
                JOINT Bip01_L_Hand
                {
                  OFFSET 16.178 0 0
                  CHANNELS 6 Xposition Yposition Zposition Zrotation Xrotation Yrotation
                  JOINT Bip01_L_Finger0
                  {
                    OFFSET 12.9992 0 0
                    CHANNELS 6 Xposition Yposition Zposition Zrotation Xrotation Yrotation
                    End Site
                    {
                      OFFSET 0 0 0
                    }
                  }
                }
              }
              JOINT BN__UpperArm_L_01
              {
                OFFSET 4.92586 2.56729 1.95639
                CHANNELS 6 Xposition Yposition Zposition Zrotation Xrotation Yrotation
                End Site
                {
                  OFFSET 0 0 0
                }
              }
            }
          }
          JOINT Bip01_R_Clavicle
          {
            OFFSET -1.90751 -3.34722 7.0168
            CHANNELS 6 Xposition Yposition Zposition Zrotation Xrotation Yrotation
            JOINT Bip01_R_UpperArm
            {
              OFFSET 15.6801 0 0
              CHANNELS 6 Xposition Yposition Zposition Zrotation Xrotation Yrotation
              JOINT Bip01_R_Forearm
              {
                OFFSET 15.3149 0 0
                CHANNELS 6 Xposition Yposition Zposition Zrotation Xrotation Yrotation
                JOINT Bip01_R_Hand
                {
                  OFFSET 16.1779 0 0
                  CHANNELS 6 Xposition Yposition Zposition Zrotation Xrotation Yrotation
                  JOINT Bip01_R_Finger0
                  {
                    OFFSET 12.9991 0 0
                    CHANNELS 6 Xposition Yposition Zposition Zrotation Xrotation Yrotation
                    End Site
                    {
                      OFFSET 0 0 0
                    }
                  }
                }
              }
              JOINT BN__UpperArm_R_01
              {
                OFFSET 4.92584 2.56728 -1.95638
                CHANNELS 6 Xposition Yposition Zposition Zrotation Xrotation Yrotation
                End Site
                {
                  OFFSET 0 0 0
                }
              }
            }
          }
        }
      }
      JOINT Bip01_L_Thigh
      {
        OFFSET -8.91231 -1.85462 5.82833
        CHANNELS 6 Xposition Yposition Zposition Zrotation Xrotation Yrotation
        JOINT Bip01_L_Calf
        {
          OFFSET 15.7566 0 0
          CHANNELS 6 Xposition Yposition Zposition Zrotation Xrotation Yrotation
          JOINT Bip01_L_HorseLink
          {
            OFFSET 16.2363 0 0
            CHANNELS 6 Xposition Yposition Zposition Zrotation Xrotation Yrotation
            JOINT Bip01_L_Foot
            {
              OFFSET 13.9816 0 0
              CHANNELS 6 Xposition Yposition Zposition Zrotation Xrotation Yrotation
              JOINT Bip01_L_Toe0
              {
                OFFSET 7.68594 5.03696 0
                CHANNELS 6 Xposition Yposition Zposition Zrotation Xrotation Yrotation
                End Site
                {
                  OFFSET 0 0 0
                }
              }
            }
          }
        }
      }
      JOINT Bip01_R_Thigh
      {
        OFFSET -6.80264 -1.57702 -6.62463
        CHANNELS 6 Xposition Yposition Zposition Zrotation Xrotation Yrotation
        JOINT Bip01_R_Calf
        {
          OFFSET 15.7566 0 0
          CHANNELS 6 Xposition Yposition Zposition Zrotation Xrotation Yrotation
          JOINT Bip01_R_HorseLink
          {
            OFFSET 16.2363 0 0
            CHANNELS 6 Xposition Yposition Zposition Zrotation Xrotation Yrotation
            JOINT Bip01_R_Foot
            {
              OFFSET 13.9816 0 0
              CHANNELS 6 Xposition Yposition Zposition Zrotation Xrotation Yrotation
              JOINT Bip01_R_Toe0
              {
                OFFSET 7.68597 5.03696 0
                CHANNELS 6 Xposition Yposition Zposition Zrotation Xrotation Yrotation
                End Site
                {
                  OFFSET 0 0 0
                }
              }
            }
          }
        }
      }
    }
    JOINT BN_Tail_01
    {
      OFFSET -7.9584 -2.82211 0
      CHANNELS 6 Xposition Yposition Zposition Zrotation Xrotation Yrotation
      JOINT BN_Tail_02
      {
        OFFSET 10.9082 0 0.00113176
        CHANNELS 6 Xposition Yposition Zposition Zrotation Xrotation Yrotation
        End Site
        {
          OFFSET 0 0 0
        }
      }
    }
  }
}
MOTION
Frames:	6
Frame Time:	0.0333333
-24.6805 50.4326 0.290097 -100.274 -85.023 0.425842 -2.7184e-006 -1.40477e-007 1.65581e-006 -90.0818 0.358835 -96.8104 7.91805 1.11503 -0.945458 -5.99875 -0.903765 4.49814 14.2449 -0.00744578 0.000356127 -21.0295 -1.98027 -11.5334 16.1404 -3.98865 0.00043094 -51.6261 -2.22926 -0.53401 9.69312 -0.00483638 -0.00072547 0.0133189 2.88297 8.08994 6.23548 5.52389e-006 -6.45823e-007 21.9701 -3.45102 -0.258784 4.58055 2.14338 -1.71136e-007 -118.83 0.485013 -178.963 -2.21043 -3.02178 -7.07624 -128.595 5.85227 -88.5757 15.6801 5.49793e-006 -2.39611e-006 -6.5748 -77.0582 71.3712 15.3149 6.53788e-007 2.15037e-007 -18.6505 6.36515e-006 8.62297e-006 16.1779 2.31227e-006 2.46382e-007 -9.44228 -83.5567 -26.4568 12.9992 -3.43191e-008 7.69232e-007 1.44808 10.0976 5.75771 4.92585 2.56728 1.95639 14.1162 -8.48216 -6.70253 -2.0803 -3.56411 6.85845 -128.05 -15.7818 91.4722 15.6801 -1.22883e-007 2.56646e-006 -11.2533 58.6701 -78.1461 15.3149 -3.43486e-007 1.58197e-006 -16.4596 -1.85207e-005 -2.0579e-005 16.178 3.46132e-007 2.24836e-006 -156.124 71.5883 144.949 12.9993 6.10166e-007 1.26016e-006 -0.00137294 0.0456935 7.98715 4.92581 2.56728 -1.95638 -165.885 -8.52264 173.302 -8.30179 -2.05074 6.59888 -76.0251 12.213 -176.443 15.7566 -3.81385e-006 2.98327e-006 -8.79224 -1.50231e-006 3.25836e-006 16.2363 -6.73941e-007 -2.54134e-006 31.1776 -2.09654e-006 4.03727e-006 13.9816 -5.3438e-007 1.08796e-007 2.09417 -7.11329 -9.03659 7.68594 5.03696 -6.91534e-007 86.1859 3.58319 -0.0686626 -7.31097 -1.85118 -5.9941 -106.228 -2.69983 175.035 15.7566 -4.07091e-007 -1.82241e-006 -37.1007 -7.46073e-006 6.61307e-006 16.2363 -3.95712e-006 1.22873e-006 50.3004 3.67501e-006 8.09962e-006 13.9816 -1.03572e-006 -1.24983e-006 -23.3404 12.5899 4.99175 7.68618 5.0366 -0.000926332 89.9958 0.00476787 4.63553 -7.95841 -2.82212 -8.34107e-007 -44.932 13.7054 172.223 10.9082 -2.88566e-006 9.93538e-008 27.6045 -0.85797 -10.2585 
-24.3797 50.0889 0.0286533 -99.7964 -84.8346 0.797093 -1.2086e-006 -3.84221e-007 1.32175e-006 -89.8021 0.329461 -96.3803 7.92501 1.11125 -0.892041 -6.05057 -1.14966 4.60768 14.2449 -0.00742737 0.000374953 -21.5006 -2.17018 -11.9394 16.1402 -3.98858 0.000404156 -53.2989 -2.3237 0.105907 9.69316 -0.00484202 -0.000699371 0.419122 2.53642 8.62571 6.23548 3.73523e-006 -2.34337e-007 25.014 -5.81765 0.478598 4.58055 2.14338 7.13655e-010 -118.768 0.485409 -178.963 -2.03384 -3.07163 -7.10761 -126.985 6.58963 -88.0616 15.6801 3.90415e-006 4.03085e-006 -0.41228 -72.5149 76.5502 15.3148 1.07063e-006 1.1521e-006 -25.9335 -1.98466e-005 -2.55819e-006 16.1779 2.11036e-006 2.9462e-006 -6.445 -83.763 -26.5094 12.9992 -1.14199e-006 1.51663e-006 1.44806 10.0976 5.75639 4.92584 2.56728 1.95639 14.1162 -8.48226 -6.7025 -2.05963 -3.63711 6.82641 -126.318 -12.986 91.9761 15.6801 1.86521e-006 3.50419e-006 -13.9868 61.1818 -78.2078 15.3149 -6.46342e-007 1.59189e-006 -17.2109 -2.85897e-005 2.12937e-005 16.178 3.62947e-007 1.25303e-006 -153.307 72.4468 145.243 12.9993 9.39437e-007 1.5467e-006 -0.00105339 0.0419425 13.5663 4.92581 2.56728 -1.95638 -165.885 -8.52253 173.302 -8.31484 -2.0849 6.51922 -77.2607 12.7009 -176.543 15.7566 -2.84684e-006 4.06891e-006 -13.5396 8.82058e-006 5.67733e-006 16.2363 3.47116e-006 -6.91972e-007 34.7326 -3.13172e-006 -2.01145e-005 13.9816 5.4867e-007 1.31903e-007 1.92095 -7.18431 -8.75952 7.68592 5.03695 -6.4471e-007 86.1896 3.57667 -0.0729123 -7.29963 -1.831 -6.07082 -107.209 -1.99502 174.746 15.7566 -1.12612e-007 -1.3458e-006 -40.3012 -0.000412493 -5.12759e-006 16.2327 1.72123e-006 9.28557e-007 52.4818 -0.00048772 0.000648202 13.9784 -1.98293e-005 -0.00016015 -23.5482 12.376 5.42347 7.68445 5.03541 -0.00106192 89.9958 0.00480212 4.63594 -7.9584 -2.82212 -9.01134e-007 -44.742 13.6737 172.015 10.9082 -6.41066e-007 1.67142e-006 30.1189 -1.39167 -10.0529 
-23.8351 49.4972 -0.352738 -99.0313 -84.4936 1.36539 -3.65403e-006 -2.80025e-007 3.28433e-006 -89.7043 0.264368 -95.1254 7.9439 1.10209 -0.718911 -6.1304 -1.13346 4.17594 14.2448 -0.00741948 0.000393018 -22.967 -2.49405 -13.4385 16.14 -3.9885 0.000376442 -53.9129 -2.4268 0.388526 9.69318 -0.0048502 -0.000673426 0.57486 2.40218 8.8335 6.23548 3.43155e-006 3.22114e-007 28.2659 -7.17909 2.19934 4.58055 2.14338 -7.55697e-009 -118.706 0.485821 -178.962 -1.96253 -3.08004 -7.12389 -126.418 7.09086 -87.7899 15.6801 -3.17462e-006 -3.70324e-006 2.42294 -66.3613 77.9496 15.3149 1.66782e-006 4.68225e-007 -34.0714 -3.04432e-006 1.08817e-005 16.1779 5.77191e-006 -4.4909e-007 -6.03879 -84.0132 -29.5179 12.9992 7.98336e-007 1.49007e-006 1.44806 10.0975 5.75502 4.92585 2.56728 1.95639 14.1162 -8.4821 -6.70251 -2.05744 -3.67146 6.80872 -125.805 -8.80614 92.2196 15.6801 -2.31469e-006 3.9877e-006 -16.2628 62.9646 -80.4521 15.3149 -4.31481e-006 3.1472e-006 -26.3006 -1.06746e-005 -1.80518e-005 16.178 -1.2261e-006 2.98768e-006 -145.665 73.6929 148.487 12.9993 2.57843e-006 5.4204e-007 -0.00203019 0.0424481 24.2208 4.92581 2.56728 -1.95638 -165.885 -8.52264 173.302 -8.26968 -2.08336 6.41017 -77.9165 13.5132 -176.9 15.7566 1.17039e-006 4.88559e-006 -18.9942 -1.7605e-005 -2.39613e-006 16.2363 -7.59526e-007 1.35743e-007 39.6107 -2.58545e-005 -2.489e-006 13.9816 7.66218e-007 1.641e-006 1.63694 -7.33573 -8.37165 7.68593 5.03696 -2.99275e-007 86.1934 3.57011 -0.0772024 -7.34949 -1.83317 -6.18726 -108.504 -0.968164 174.334 15.7566 -6.95706e-006 2.48739e-007 -44.832 1.46655e-005 -1.02046e-005 16.2363 3.78012e-006 1.92511e-006 55.7207 8.58446e-006 1.29409e-006 13.9816 -6.59729e-006 -1.12602e-006 -23.8777 11.9988 6.08032 7.68619 5.0366 -0.000925324 89.9958 0.00476772 4.63542 -7.9584 -2.82212 -1.46e-007 -44.5049 13.6064 171.894 10.9082 4.99405e-006 1.66866e-006 32.6645 -1.92306 -9.77752 
-23.1722 48.7806 -0.793055 -98.1713 -84.0786 1.98479 -3.90565e-006 -5.86654e-008 1.70923e-006 -89.7295 0.180953 -93.4581 7.96174 1.09057 -0.489203 -6.23701 -0.948823 3.42498 14.2448 -0.00740614 0.000412064 -24.9909 -2.80523 -15.5421 16.1398 -3.98843 0.000347412 -53.7493 -2.51774 0.40364 9.6932 -0.00485588 -0.0006454 0.550813 2.4237 8.80093 6.23547 4.64913e-006 1.73139e-007 31.3667 -7.54179 4.38353 4.58055 2.14338 -3.16519e-007 -118.645 0.486217 -178.961 -1.97019 -3.06222 -7.12821 -126.605 7.40822 -87.7095 15.6801 3.88397e-006 5.55555e-007 3.8835 -59.8998 77.6995 15.3148 -4.11999e-006 -1.69061e-006 -41.6619 -9.29771e-007 1.34318e-005 16.1779 4.91673e-006 -1.89597e-006 -8.27879 -84.2227 -34.907 12.9991 7.86074e-007 -3.66197e-007 1.44805 10.0975 5.7537 4.92584 2.56727 1.95639 14.1162 -8.48212 -6.70251 -2.06897 -3.67508 6.80341 -126.15 -4.01871 92.2768 15.6801 -4.78314e-006 6.60528e-007 -18.0165 64.5592 -84.0558 15.3105 -3.48742e-006 -0.000428148 -38.4481 -0.00101253 0.00125793 16.1736 -0.00023634 -0.000355547 -136.182 75.2081 152.927 12.9957 -0.000298678 0.000188072 -0.00633117 0.0442539 37.4779 4.92447 2.56663 -1.95597 -165.886 -8.52264 173.301 -8.18744 -2.06164 6.29328 -77.4859 14.5005 -177.579 15.7566 -5.18091e-008 3.35977e-006 -23.3406 -1.02949e-005 6.5098e-006 16.2363 6.92252e-006 -1.38723e-006 44.442 -1.51481e-005 -1.09815e-005 13.9816 -2.34771e-006 1.57386e-006 1.32336 -7.50011 -7.95289 7.68593 5.03695 -6.84069e-007 86.1971 3.56358 -0.0814452 -7.43237 -1.85216 -6.31655 -109.701 0.188882 173.858 15.7566 -2.54109e-006 -3.29997e-007 -49.5566 -1.63029e-005 1.99462e-005 16.2363 4.53307e-006 5.59931e-007 59.2608 1.11034e-005 -3.52615e-006 13.9816 -7.58967e-006 -1.05461e-006 -24.2688 11.5373 6.89355 7.68618 5.03659 -0.00092635 89.9958 0.00476863 4.63542 -7.95841 -2.82213 -1.76477e-007 -44.2209 13.5044 171.895 10.9082 5.32377e-006 1.17322e-006 34.9209 -2.34724 -10.1396 
-22.4991 48.0434 -1.24698 -97.4177 -83.6465 2.49065 -1.35652e-006 -2.40767e-007 2.90355e-006 -89.817 0.0918512 -91.7131 7.97553 1.07817 -0.243681 -6.37482 -0.681465 2.54985 14.2448 -0.00740022 0.000431986 -27.1476 -3.00775 -17.7612 16.1396 -3.98836 0.000318222 -53.1549 -2.58016 0.252131 9.69324 -0.00486113 -0.000621356 0.413548 2.54153 8.61791 6.23548 3.77953e-006 4.72549e-007 33.9913 -7.11903 6.5322 4.58056 2.14338 -8.28671e-007 -118.583 0.486507 -178.96 -2.02389 -3.0348 -7.12615 -127.206 7.64585 -87.7624 15.6801 -9.12699e-007 -3.9343e-006 4.96884 -53.8218 77.0029 15.3149 5.64377e-007 -4.56251e-007 -48.2673 -1.18548e-006 1.41972e-005 16.1779 5.41121e-006 -2.29188e-006 -12.4332 -84.3156 -41.7754 12.9992 1.99336e-006 3.42265e-006 1.44804 10.0975 5.75233 4.92585 2.56728 1.95639 14.1162 -8.4821 -6.70251 -2.08532 -3.66311 6.80504 -126.937 0.733715 92.2179 15.6801 -2.38947e-006 -2.549e-006 -19.2839 65.918 -88.155 15.3149 -5.62803e-007 4.96564e-007 -51.3111 -9.80097e-006 1.54568e-005 16.178 2.01967e-006 -2.12448e-006 -126.147 76.8369 157.428 12.9992 -5.79939e-007 6.7631e-007 -0.00439058 0.043909 50.941 4.92582 2.56728 -1.95638 -165.886 -8.52254 173.302 -8.0902 -2.03488 6.18135 -76.2577 15.4652 -178.493 15.7566 -4.6479e-006 3.99456e-006 -26.3978 8.55252e-006 -1.50076e-005 16.2363 -4.71736e-006 -6.60394e-007 48.7344 -1.2013e-005 -1.4278e-005 13.9816 -4.9644e-007 1.71623e-006 0.990533 -7.65583 -7.50604 7.68592 5.03696 3.05264e-008 86.2009 3.557 -0.0857561 -7.528 -1.88414 -6.43862 -110.629 1.31442 173.338 15.7566 -2.08883e-006 1.71246e-006 -53.8455 1.98058e-005 -2.63252e-006 16.2363 -2.96718e-006 3.91503e-006 62.6084 -1.33385e-005 -1.69088e-005 13.9816 -1.1759e-006 1.05447e-006 -24.6578 11.076 7.74956 7.68619 5.03661 -0.000926345 89.9958 0.00476742 4.63542 -7.95841 -2.82212 3.60531e-007 -43.8779 13.3642 172.052 10.9082 1.5127e-006 5.8286e-007 37.1914 -2.78721 -10.5307 
-21.9578 47.428 -1.64563 -96.851 -83.2803 2.86018 -2.56058e-007 -3.75368e-007 1.57209e-006 -89.9218 0.0175456 -90.3357 7.98068 1.06786 -0.0487035 -6.55137 -0.433676 1.77869 14.2448 -0.00738715 0.000452397 -28.8948 -3.05195 -19.4867 16.1394 -3.98829 0.000288777 -52.4997 -2.59927 0.0425864 9.69326 -0.00486416 -0.000594292 0.264734 2.66972 8.41863 6.23549 2.96631e-006 -4.69477e-007 35.7105 -6.29205 8.07805 4.58056 2.14339 -5.57397e-007 -118.53 0.487102 -178.96 -2.08812 -3.00887 -7.1184 -127.863 7.89452 -87.8915 15.6801 2.35891e-006 -2.45882e-006 5.88281 -49.0385 76.4336 15.3149 2.25149e-006 8.84489e-007 -53.1668 -2.53079e-006 1.31561e-005 16.1779 1.13333e-006 -1.73074e-006 -17.0411 -84.278 -48.3524 12.9991 9.81799e-007 3.07326e-006 1.44803 10.0975 5.75101 4.92585 2.56728 1.95639 14.1162 -8.48208 -6.70252 -2.09878 -3.64128 6.81273 -127.74 4.56355 92.095 15.6801 -2.80249e-006 -1.25467e-006 -20.3484 67.0214 -91.3943 15.3149 1.19185e-006 -7.98142e-007 -61.916 -4.31161e-006 2.08369e-005 16.1779 -2.28708e-007 -5.31668e-006 -117.435 78.1686 160.737 12.9992 -1.86448e-006 2.89502e-006 -0.00191329 0.0438623 61.7943 4.92582 2.56728 -1.95637 -165.885 -8.52265 173.302 -8.00062 -2.01938 6.10456 -74.8541 16.1563 -179.39 15.7566 -4.70586e-006 5.27169e-006 -28.3085 1.5495e-005 -1.12211e-005 16.2363 -1.31184e-006 1.1107e-007 51.9756 -7.71698e-006 -2.0027e-005 13.9816 1.03303e-006 3.61627e-006 0.717526 -7.7559 -7.09662 7.68593 5.03696 1.30354e-006 86.2046 3.5505 -0.0900082 -7.6079 -1.92341 -6.52242 -111.201 2.17576 172.828 15.7566 -3.41496e-006 -2.50807e-007 -57.0969 1.98451e-005 -1.58746e-006 16.2363 -1.70895e-006 2.35053e-006 65.2101 2.49236e-005 1.57756e-006 13.9816 -3.68956e-006 8.85512e-007 -24.9821 10.6944 8.53255 7.68619 5.03661 -0.000924062 89.9958 0.00476742 4.63542 -7.95841 -2.82212 4.99966e-008 -43.4802 13.1896 172.394 10.9082 3.30723e-007 -1.34769e-007 39.2076 -3.16058 -11.2497 
